<?xml version="1.0" encoding="utf-8"?>
<!-- Generator: Adobe Illustrator 19.2.1, SVG Export Plug-In . SVG Version: 6.00 Build 0)  -->
<svg version="1.1" id="Layer_1" xmlns="http://www.w3.org/2000/svg" xmlns:xlink="http://www.w3.org/1999/xlink" x="0px" y="0px"
	 viewBox="0 0 360 360" style="enable-background:new 0 0 360 360;" xml:space="preserve">
<style type="text/css">
	.st0{fill:none;stroke:#58595B;stroke-linecap:round;stroke-miterlimit:10;}
	.st1{fill:none;stroke:#58595B;stroke-width:2;stroke-linecap:round;stroke-linejoin:round;stroke-miterlimit:10;}
	.st2{fill:#00A8E1;}
</style>
<g>
	<path class="st0" d="M226.2,105.9c0,7.9-33.2,11.2-74.2,11.2s-74.2-3.4-74.2-11.2"/>
	<path class="st1" d="M236.4,204.9C236.4,204.9,236.4,204.8,236.4,204.9c-0.3-3-0.4-6-0.6-8.9c-0.8-12.7-1.6-25.3-2.4-38
		c-0.2-3.7-0.5-7.5-0.7-11.2c0,0,8.3-21.1,32.8-15.7c12.4,2.7,17.2,14,16.8,25.7c-0.3,8.1-2.4,16.1-6.4,23.1
		c-3.9,6.8-9.8,12.6-15.8,17.6c-2.9,2.4-6.1,4.7-9.4,6.5c-3.2,1.8-7,3.7-10.7,4.3C237.8,208.7,236.7,206.9,236.4,204.9z"/>
	<path class="st1" d="M237.6,226.2c0.8-2.8,3.9-4.1,3.9-4.1c39-18.9,51.2-45.1,51.2-63.9s-9.8-34.6-25.9-37.9
		c-16.1-3.3-31.2,6.3-31.2,6.3c-0.4,0.2-0.9,0.4-1.4,0.4c-1.4,0-2.7-1.2-2.8-2.8l-0.1-0.9c-0.3-5.1-0.6-11.3-1-16.3
		c0-7.9-35.1-12.4-78.3-12.4S73.7,99.1,73.7,107c-0.3,5.1-0.6,11.3-1,16.3c-0.7,11.6-1.5,23.2-2.2,34.7c-0.8,12.7-1.6,25.3-2.4,38
		c-0.5,8.3-1,16.6-1.6,24.9c-0.3,5.1-0.2,10,1.1,15c3.6,14,18.4,20,31,23.9c17.2,5.4,35.5,6.5,53.4,6.5s36.2-1.2,53.4-6.5
		c12.6-3.9,27.4-9.9,31-23.9C237.2,232.7,237.5,229.5,237.6,226.2"/>
</g>
<g>
	<path class="st2" d="M151.1,155.5c0,0,0.6,0,0.6,0c0,0,0.1,0.4,0.1,0.4c1.3,0.1,2.7-0.3,2.8-0.3c0.1-0.1,0.5-0.6,0.1-0.8
		c-1.5,0.3-3.7-0.2-3.4-0.1c-0.3-0.1-0.7-0.3-1-0.7c-0.7-1.1-1-0.4-1.1,0C149.3,155.4,149.6,155.3,151.1,155.5z"/>
	<path class="st2" d="M161.3,174c-0.1-0.6-0.2-1.1-0.3-1.6c-0.7-2.4-1.6-5-4-6.1c-1-0.4-3-0.3-3.3-2.7c0-0.6,0-7.3,0-7.4l-3.1,0.6
		c0,0,0,0.5,0,0.5c0,0-0.1,1.4,0,1.4c0,0,0,0.7,0,1.5c0.1,3.8,0.3,6.1-3.8,7.7c-2.5,0.9-2.7,2.1-3,5c0,0.2,0,0.4,0,0.6
		c0-0.1-0.8,8.1,1.9,21.2c0,0,0.4,2.1,0.5,2.4c0,0.2,0.2,0.4,0.6,0.7c4.7,1.1,5.7,0.3,8.1,0.6c2.5,0.3,4.7-1.3,4.8-1.3
		c0.2-0.1,1.1-1.8,1.2-3.9C161.8,187.5,161.5,178.4,161.3,174z"/>
</g>
</svg>
