<svg xmlns:xlink="http://www.w3.org/1999/xlink" width="16" height="14" viewBox="0 0 16 14" fill="none" xmlns="http://www.w3.org/2000/svg">
<path d="M0.8 0H15.2C15.4122 0 15.6157 0.0819442 15.7657 0.227806C15.9157 0.373667 16 0.571498 16 0.777778V13.2222C16 13.4285 15.9157 13.6263 15.7657 13.7722C15.6157 13.9181 15.4122 14 15.2 14H0.8C0.587827 14 0.384344 13.9181 0.234315 13.7722C0.0842854 13.6263 0 13.4285 0 13.2222V0.777778C0 0.571498 0.0842854 0.373667 0.234315 0.227806C0.384344 0.0819442 0.587827 0 0.8 0ZM14.4 3.29622L8.0576 8.81845L1.6 3.27911V12.4444H14.4V3.29622ZM2.0088 1.55556L8.0488 6.73711L14.0016 1.55556H2.0088Z" fill="#EAE6D8"/>
</svg>
